HIERARCHY
ROOT SpineBase
{
  OFFSET 0.000000 0.000000 0.000000
  CHANNELS 6 Xposition Yposition Zposition Zrotation Xrotation Yrotation
  JOINT SpineMid
  {
    OFFSET 0.000000 30.943224 0.000000
    CHANNELS 3 Zrotation Xrotation Yrotation
    JOINT SpineShoulder
    {
      OFFSET 0.064657 22.907327 -0.789494
      CHANNELS 3 Zrotation Xrotation Yrotation
      JOINT Neck
      {
        OFFSET 0.041778 7.549463 -0.595876
        CHANNELS 3 Zrotation Xrotation Yrotation
        JOINT Head
        {
          OFFSET 7.520483 10.291068 1.519198
          CHANNELS 3 Zrotation Xrotation Yrotation
          End Site
          {
            OFFSET 0 0 0
          }
        }
      }
      JOINT ShoulderLeft
      {
        OFFSET -11.358574 -2.248637 -10.816787
        CHANNELS 3 Zrotation Xrotation Yrotation
        JOINT ElbowLeft
        {
          OFFSET -7.486696 -21.087745 -7.187755
          CHANNELS 3 Zrotation Xrotation Yrotation
          JOINT WristLeft
          {
            OFFSET 19.843092 -2.722977 -18.471116
            CHANNELS 3 Zrotation Xrotation Yrotation
            JOINT HandLeft
            {
              OFFSET 7.280182 -1.249655 -5.218740
              CHANNELS 3 Zrotation Xrotation Yrotation
              JOINT HandTipLeft
              {
                OFFSET 5.191987 -2.408616 -2.859904
                CHANNELS 3 Zrotation Xrotation Yrotation
                End Site
                {
                  OFFSET 0 0 0
                }
              }
              JOINT ThumbLeft
              {
                OFFSET 1.376356 3.142785 -1.733599
                CHANNELS 3 Zrotation Xrotation Yrotation
                End Site
                {
                  OFFSET 0 0 0
                }
              }
            }
          }
        }
      }
      JOINT ShoulderRight
      {
        OFFSET -2.426248 3.442035 -18.083554
        CHANNELS 3 Zrotation Xrotation Yrotation
        JOINT ElbowRight
        {
          OFFSET 9.953029 -14.024806 18.144441
          CHANNELS 3 Zrotation Xrotation Yrotation
          JOINT WristRight
          {
            OFFSET 19.942377 -17.450558 0.300337
            CHANNELS 3 Zrotation Xrotation Yrotation
            JOINT HandRight
            {
              OFFSET 3.695174 -5.927635 -3.484159
              CHANNELS 3 Zrotation Xrotation Yrotation
              JOINT HandTipRight
              {
                OFFSET 0.091100 -1.417387 -0.433835
                CHANNELS 3 Zrotation Xrotation Yrotation
                End Site
                {
                  OFFSET 0 0 0
                }
              }
              JOINT ThumbRight
              {
                OFFSET 0.014869 -1.652539 -1.189417
                CHANNELS 3 Zrotation Xrotation Yrotation
                End Site
                {
                  OFFSET 0 0 0
                }
              }
            }
          }
        }
      }
    }
  }
  JOINT HipLeft
  {
    OFFSET -4.410033 0.494304 -9.103894
    CHANNELS 3 Zrotation Xrotation Yrotation
    JOINT KneeLeft
    {
      OFFSET -5.843616 -36.777956 -1.907835
      CHANNELS 3 Zrotation Xrotation Yrotation
      JOINT AnkleLeft
      {
        OFFSET -7.213580 -37.995939 7.324199
        CHANNELS 3 Zrotation Xrotation Yrotation
        JOINT FootLeft
        {
          OFFSET -0.674216 -7.415511 -6.647613
          CHANNELS 3 Zrotation Xrotation Yrotation
          End Site
          {
            OFFSET 0 0 0
          }
        }
      }
    }
  }
  JOINT HipRight
  {
    OFFSET 5.255002 0.585085 1.816152
    CHANNELS 3 Zrotation Xrotation Yrotation
    JOINT KneeRight
    {
      OFFSET 0.680406 -39.487595 4.170965
      CHANNELS 3 Zrotation Xrotation Yrotation
      JOINT AnkleRight
      {
        OFFSET -4.704151 -34.934604 11.738220
        CHANNELS 3 Zrotation Xrotation Yrotation
        JOINT FootRight
        {
          OFFSET 2.834006 -7.522775 -5.584037
          CHANNELS 3 Zrotation Xrotation Yrotation
          End Site
          {
            OFFSET 0 0 0
          }
        }
      }
    }
  }
}
MOTION
Frames: 8
Frame Time: 0.033333
-38.903206 82.278379 362.594466 -0.000000 0.000000 -48.488831 0.000000 -0.000000 48.488831 -0.000000 0.000000 0.000000 -0.000000 0.000000 0.000000 0.000000 0.000000 0.000000 -0.000000 0.000000 0.000000 -0.000000 0.000000 0.000000 -0.000000 0.000000 0.000000 -0.000000 0.000000 0.000000 0.000000 0.000000 0.000000 0.000000 0.000000 0.000000 -0.000000 0.000000 0.000000 -0.000000 0.000000 0.000000 -0.000000 0.000000 0.000000 -0.000000 0.000000 0.000000 0.000000 0.000000 0.000000 0.000000 0.000000 0.000000 0.000000 -0.000000 48.488831 -0.000000 0.000000 0.000000 -0.000000 0.000000 0.000000 0.000000 0.000000 0.000000 0.000000 -0.000000 48.488831 -0.000000 0.000000 0.000000 -0.000000 0.000000 0.000000 0.000000 0.000000 0.000000
-38.967019 82.296023 362.105742 0.464204 -0.313219 -49.112327 -0.540647 -0.145914 49.112907 -0.000000 0.000000 0.000000 -1.155363 0.816843 -0.414647 0.000000 0.000000 0.000000 -1.583289 -1.392704 1.014124 2.567514 2.100146 -1.911280 2.922782 2.585360 2.972603 -3.135443 -1.930696 -0.645435 0.000000 0.000000 0.000000 0.000000 0.000000 0.000000 -0.132378 1.211012 0.699723 0.767488 1.892736 2.846807 -1.338863 0.433426 -1.016004 -0.307481 -3.438767 -2.324311 0.000000 0.000000 0.000000 0.000000 0.000000 0.000000 -0.306725 -1.194405 49.285883 0.642180 0.861209 -0.175066 1.160604 0.942445 -1.128373 0.000000 0.000000 0.000000 -0.540647 -0.145914 49.112907 -0.000000 0.000000 0.000000 0.958621 -2.087598 -1.496088 0.000000 0.000000 0.000000
-39.081108 82.315642 361.624894 0.857524 -0.585129 -49.576212 0.093245 0.077892 49.615455 -0.000284 0.013019 0.044869 -3.001918 2.043635 -0.776490 0.000000 0.000000 0.000000 -3.291892 -1.578439 1.464620 4.062710 3.355647 -3.200692 4.674857 4.429180 5.098375 -5.007628 -2.917085 -0.972920 0.000000 0.000000 0.000000 0.000000 0.000000 0.000000 -1.179532 2.742468 1.221718 1.294043 3.519486 5.163940 -1.844254 0.681618 -2.291147 -1.065335 -6.060135 -3.934952 0.000000 0.000000 0.000000 0.000000 0.000000 0.000000 -0.480580 -2.220670 49.912286 1.154542 1.652388 -0.339396 2.203341 1.477533 -2.117166 0.000000 0.000000 0.000000 -1.001474 -0.273413 49.578202 0.656599 -1.105189 0.374854 1.014825 -2.895957 -3.152843 0.000000 0.000000 0.000000
-39.245474 82.337235 361.151920 1.180615 -0.816172 -49.878352 0.121777 0.102858 49.934283 -0.004129 0.016859 0.061138 -3.954513 2.723949 -0.995846 0.000000 0.000000 0.000000 -3.622709 -1.563394 1.515536 4.509508 3.877401 -3.845658 5.738274 5.732220 6.624760 -5.908957 -3.245500 -1.002964 0.000000 0.000000 0.000000 0.000000 0.000000 0.000000 -1.541744 3.642646 1.686600 1.636451 4.835033 6.911866 -1.411809 0.296074 -4.040230 -2.283649 -7.522478 -4.481837 0.000000 0.000000 0.000000 0.000000 0.000000 0.000000 -0.535757 -3.078156 50.365878 2.201550 1.717673 -0.260921 2.463802 2.259051 -3.242823 0.000000 0.000000 0.000000 -1.384870 -0.376907 49.882206 0.972252 -1.577951 0.550650 1.186964 -4.114625 -4.363313 0.000000 0.000000 0.000000
-39.460115 82.360801 360.686821 1.433944 -1.006698 -50.017932 0.138929 0.117846 50.087717 -0.010345 0.018735 0.073402 -4.552677 3.176870 -1.121783 0.000000 0.000000 0.000000 -3.127229 -1.048292 1.138902 3.896207 3.698575 -3.826881 6.380386 6.627326 7.682367 -5.997183 -3.053369 -0.760646 0.000000 0.000000 0.000000 0.000000 0.000000 0.000000 -1.746682 4.231707 2.050055 1.843363 5.824788 8.079454 -0.069400 -1.105978 -6.398133 -3.935601 -7.593754 -3.690590 0.000000 0.000000 0.000000 0.000000 0.000000 0.000000 -0.483167 -3.767832 50.645094 2.663209 2.164241 -0.331154 3.047195 2.215009 -4.030718 0.000000 0.000000 0.000000 -1.692677 -0.452028 50.023853 1.278535 -1.996725 0.717659 1.146860 -5.134575 -5.314258 0.000000 0.000000 0.000000
-39.725033 82.386342 360.229597 1.617770 -1.156944 -49.995430 0.144978 0.122607 50.075717 -0.018884 0.018540 0.081706 -4.800564 3.402948 -1.162726 0.000000 0.000000 0.000000 -1.749780 -0.025006 0.286008 2.178180 2.777064 -3.127267 6.732796 7.181601 8.340828 -5.325285 -2.378335 -0.257122 0.000000 0.000000 0.000000 0.000000 0.000000 0.000000 -1.791389 4.511365 2.310800 1.949004 6.489579 8.669943 1.995699 -3.746291 -9.343326 -5.983931 -6.204328 -1.439172 0.000000 0.000000 0.000000 0.000000 0.000000 0.000000 -0.330350 -4.291993 50.749161 2.993812 2.550355 -0.386765 3.499621 1.787193 -4.662310 0.000000 0.000000 0.000000 -1.926076 -0.495650 50.003433 1.574800 -2.361107 0.875154 0.905124 -5.932074 -5.997689 0.000000 0.000000 0.000000
-40.066454 82.432793 359.756635 1.735068 -1.278594 -49.781030 0.146192 0.106705 49.868506 -0.023020 -0.000280 0.086903 -4.695137 3.504127 -1.165507 0.000000 0.000000 0.000000 2.216406 2.466396 -2.092891 -2.665538 -0.332866 -0.853752 6.842504 7.667979 9.310750 -4.460452 -1.510984 -0.154372 0.000000 0.000000 0.000000 0.000000 0.000000 0.000000 -1.723147 4.818106 2.639718 1.952507 6.793537 8.828819 1.035400 -1.008812 -7.587074 -3.681634 -9.354388 -4.269947 0.000000 0.000000 0.000000 0.000000 0.000000 0.000000 -0.025834 -4.584613 50.645648 3.080536 2.906598 -0.425031 3.719199 0.208653 -4.946509 0.000000 0.000000 0.000000 -2.096511 -0.499516 49.791252 1.866585 -2.639803 1.020091 0.420218 -6.345070 -6.296011 0.000000 0.000000 0.000000
-40.453407 82.467688 359.277946 1.818876 -1.370654 -49.402207 0.119713 0.087424 49.494286 -0.041392 -0.000808 0.088245 -4.448456 3.450260 -1.121856 0.000000 0.000000 0.000000 5.652405 4.289907 -4.179217 -6.383235 -2.807861 0.744590 5.837327 6.762355 9.216864 -0.402849 1.195269 1.143070 0.000000 0.000000 0.000000 0.000000 0.000000 0.000000 -1.344144 4.343051 2.734832 1.874465 6.878739 8.119679 4.994751 -7.110276 -12.530022 -8.171936 -4.143435 2.067092 0.000000 0.000000 0.000000 0.000000 0.000000 0.000000 0.350937 -4.795636 50.372062 3.108416 3.308417 -0.462899 3.772047 -1.112525 -5.120566 0.000000 0.000000 0.000000 -2.224174 -0.489428 49.414465 2.145739 -2.859527 1.152958 -0.165096 -5.899205 -6.105712 0.000000 0.000000 0.000000
